<svg id="_Layer_" data-name="&lt;Layer&gt;" xmlns="http://www.w3.org/2000/svg" viewBox="0 0 833.92 1503"><defs><style>.cls-1{fill:#6077bd;}.cls-2{fill:#111f59;}.cls-3{fill:#fc7575;}.cls-4{fill:#381a3f;}.cls-5{fill:#4f80ff;}.cls-6{fill:#fd5e5a;}.cls-7{fill:#18287d;}.cls-8{fill:#e24242;}.cls-9{fill:#2e56af;}.cls-10{fill:#35365c;}.cls-11{fill:#47487a;}.cls-12{fill:#749cfe;}.cls-13{fill:#ff9739;}.cls-14{fill:#757ad8;}.cls-15{fill:#b9bcfc;}.cls-16{fill:#fb8603;}.cls-17{fill:#653870;}.cls-18{fill:#3d2144;}.cls-19{fill:#172866;}.cls-20{fill:#822b7a;}.cls-21{fill:#fff;}.cls-22{fill:#f9b406;}</style></defs><path class="cls-1" d="M1168.46,1566.7c0,7.49-183.31,13.56-409.43,13.56s-409.42-6.07-409.42-13.56,183.3-13.57,409.42-13.57S1168.46,1559.2,1168.46,1566.7Z" transform="translate(-334.54 -83.5)"/><path class="cls-2" d="M684,213.9s-14.71-25.35-32.23-20.34S639,212,639,212s-19.4-7.82-21.28,7.82,4.69,35.36,11.89,35.36c0,0,1.56,19.58,17.52,25.35s29.51-5.79,29.51-5.79,3.35,6.1,14.93,1.41S691.3,221.19,684,213.9Z" transform="translate(-334.54 -83.5)"/><path class="cls-3" d="M933.71,353s10.17-6.67,16.12-6.67,23.61,15.7,23.61,15.7l-14,8.67Z" transform="translate(-334.54 -83.5)"/><path class="cls-2" d="M606.67,200.19c10.79-28.15,56.6-28.8,71,4.36l-1.64.7c-15.75-29-54.67-23.62-60.46-2.59Z" transform="translate(-334.54 -83.5)"/><path class="cls-4" d="M815,120.26c-2,0-27.48,12.19-32.87,20.12s-8.78,14.17-7.36,24.94,29.94,63.3,29.94,63.3,90.19,12.58,90.19,9.46,20.26-33.1,25.08-43.3,11.47-32.58,3.25-55-29.18-28.34-57.8-30.89S815,120.26,815,120.26Z" transform="translate(-334.54 -83.5)"/><path class="cls-5" d="M686.61,331.91s30.6,31.45,40.8,78.2-10.62,262.23-10.62,262.23L632.88,649S588,447.51,584.61,444.11c0,0,19.55-109.65,29.75-129.2S686.61,331.91,686.61,331.91Z" transform="translate(-334.54 -83.5)"/><path class="cls-3" d="M632.21,309.59s8.08,53.77,30.18,56.75,12.75-16.58,24.22-34.43,43.27-29.46,43.27-29.46l-8.14-78.2S639,309.59,632.21,309.59Z" transform="translate(-334.54 -83.5)"/><path class="cls-6" d="M729.88,302.45l-8.14-78.2s-14.13,14.58-31.2,31.69a56.16,56.16,0,0,0-1.38,12.72c0,11.86,8.06,30.9,17.78,45.09A142.31,142.31,0,0,1,729.88,302.45Z" transform="translate(-334.54 -83.5)"/><path class="cls-3" d="M713.42,238.93s-9.07,8.14-9.07,29.73,23.15,67,36,63.52,10.33-11.27,12.83-11.27,3.75,3.45,5.94-4.69c0,0,5.72,1.64,7.51-.15s-1.72-3.13,0-7.51,5.79-5.32,9.39-4.23,7.51-1.41,6.42-6.1-6.67-22.06.18-31,22.66-28.79,20.94-40.68-10.48-27.07-22.06-28.32S717.47,233.14,713.42,238.93Z" transform="translate(-334.54 -83.5)"/><path class="cls-7" d="M679.33,267.12s9.06-28.5,3.74-44.46-15.33-28.47-5-43.18,32.54-30.35,57.58-28.79,62.21,31.6,68,52.57,0,26,0,26-2.29-6.58-15.43-2.82-57.38,35.08-67.31,12.16c-3.88-8.93-14,9.25-14,9.25l-10.36,9.29Z" transform="translate(-334.54 -83.5)"/><path class="cls-3" d="M701.91,231.33c-6.19,4.95-13,23.8-2.26,27.77s20.11-1.13,23.51-10.77S713.49,222.08,701.91,231.33Z" transform="translate(-334.54 -83.5)"/><path class="cls-6" d="M632.21,646.2l-85,164.54V1180.2s-11.33,20.4-11.33,37.4S582.7,1497,574.27,1505.47L562,1553.07s17,27.19,40.8,27.19l-9.07-74.79s19-275.4,19-309.4S713,658.31,713,658.31Z" transform="translate(-334.54 -83.5)"/><path class="cls-8" d="M624.42,705.34l32.83,477.13s-16.41,27.2-16.41,49.87,28.77,275.39,28.77,275.39l-12.46,44.21,97.46,13.59s-65.09-28.33-65.09-49.86,35.63-361.53,35.63-361.53L713,658.31Z" transform="translate(-334.54 -83.5)"/><path class="cls-6" d="M689.52,1515.67c0-13.69,14.39-156,24.87-257.92-22.84-2.38-49.37-4-67.44,1.59-1.26.38-2.59.72-4,1,6.64,71.46,26.67,247.38,26.67,247.38l-12.46,44.21,97.46,13.59S689.52,1537.2,689.52,1515.67Z" transform="translate(-334.54 -83.5)"/><path class="cls-9" d="M662.38,1533.38l-5.23,18.56,32.37,4.51C679.81,1538.63,669.48,1534,662.38,1533.38Z" transform="translate(-334.54 -83.5)"/><path class="cls-9" d="M754.61,1565.53a313.26,313.26,0,0,1-36.26-19.13l-28.83,10Z" transform="translate(-334.54 -83.5)"/><path class="cls-6" d="M574.27,1505.47,562,1553.07s17,27.19,40.8,27.19l-9.07-74.79s10.51-152.56,15.89-244.6c-24.73-2.6-53.12-10.34-70.79-20.14C548.87,1308.74,581.41,1498.32,574.27,1505.47Z" transform="translate(-334.54 -83.5)"/><path class="cls-8" d="M640.84,1232.34c0,3.75.79,13.82,2.1,28,1.42-.29,2.75-.63,4-1,18.07-5.54,44.6-4,67.44-1.59,1.66-16.1,3.22-31.13,4.61-44.54q-35.89-4.12-71.35-10.91C644.06,1211.36,640.84,1222.29,640.84,1232.34Z" transform="translate(-334.54 -83.5)"/><path class="cls-8" d="M547.21,1180.2s-11.33,20.4-11.33,37.4c0,2.6,1.09,10.9,2.9,23.13,17.67,9.8,46.06,17.54,70.79,20.14,1.85-31.63,3.09-56.11,3.09-64.8,0-.31,0-.7,0-1.09q-33-7.47-65.48-16.85Z" transform="translate(-334.54 -83.5)"/><path class="cls-5" d="M632.21,646.2S448.61,894.61,385.15,1136c0,0,82.73,57.81,103.13,57.81s26.07-9.07,34,12.46S615.21,1247.07,647,1238s89.53,2.3,107.66,2.3-24.22-564.56-41.65-582Z" transform="translate(-334.54 -83.5)"/><path class="cls-10" d="M831.11,767.11l10.2,430.09-10.2,52.7,17,283.9-6.8,46.46,112.2,6.24s-81.6-13.6-81.6-57.8,45.9-346.23,45.9-355,18.7-406.58,18.7-406.58Z" transform="translate(-334.54 -83.5)"/><path class="cls-10" d="M785,1523.6c0-.12-.06-.29-.09-.41l-25.81-.59c-1.57,2.84-34.59,59.57-8.78,57.66,44.24-3.26,52.08,6.29,73.1,6.24,22.95,0,47.74-1,47.74-1C849,1576.3,797.11,1564.4,785,1523.6Z" transform="translate(-334.54 -83.5)"/><path class="cls-11" d="M742.71,787.51,741,1204.86s-13.6,52.69-13.6,63.74,20,258.4,20,258.4l37.56-3.81c-11.77-41.87,20.66-282.89,20.66-282.89l56.1-264.09,40.8-227.8Z" transform="translate(-334.54 -83.5)"/><path class="cls-12" d="M902.51,748.41q-9.79,61.92-20.2,123.74L871.84,934c-3.6,20.58-6.61,41.29-11.24,61.67l-25.67,122.71-26.32,122.58,0-.22c-3.21,23.47-6.09,47-9,70.54s-5.75,47.07-8.21,70.65-4.74,47.17-6.47,70.81c-.91,11.81-1.54,23.65-1.81,35.49-.06,5.92-.3,11.84.06,17.76.17,2.94.08,5.93.47,8.86l1.36,8.78-1.73-8.74c-.51-2.92-.55-5.91-.85-8.86-.63-5.93-.58-11.87-.69-17.81-.1-11.87.16-23.76.71-35.62.88-23.74,2.73-47.42,4.77-71.07q6.11-71,15.32-141.61l0-.1,0-.13L828.38,1117l26.43-122.52c4.65-20.36,8.06-41,12.07-61.48l11.63-61.57Q890.18,809.87,902.51,748.41Z" transform="translate(-334.54 -83.5)"/><path class="cls-13" d="M815,290.26c-5.1,0-119.85,67.15-119.85,67.15s23.8,141.1,17.85,180.2,6.38,278.8,14.45,278.8,241.4,33.15,245.65,21.25-28.9-16.15-19.55-25.5,24.23-4.68,13.6-15.3-6-10.2-6-29.75-1.7-400.47-1.7-400.47Z" transform="translate(-334.54 -83.5)"/><path class="cls-3" d="M807.88,224.25S795.41,273.3,795.41,308s5.1,46.59,27.2,49.42,48.17,3.12,62.33-11.05-4-101.83-4-101.83Z" transform="translate(-334.54 -83.5)"/><path class="cls-14" d="M1037.37,701.38c-9.06,4-56.28-3.55-59.68-14.31s-24.18-58.79-24.18-58.79L911,664.54l45.9,65.17s41.11,2.27,82.73-13c5.67,5.66,11.9,27.2,11.9,34.56s10.2,1.14,10.2-22.1V697.41C1061.74,692.88,1046.44,697.41,1037.37,701.38Zm4.9,17.93.1.1Zm.64.64.17.16Z" transform="translate(-334.54 -83.5)"/><path class="cls-15" d="M930.84,651.51s7.93,85,13,90.1,111.06,32.87,111.06,47-13.6,19.27-13.6,31.17-6.19,20.43-12.73,20.43,5.26-40.11,0-45.37-94.93,2.27-104.57-7.36-65.16-70.27-65.16-113.9S930.84,651.51,930.84,651.51Z" transform="translate(-334.54 -83.5)"/><path class="cls-16" d="M1027.17,524c-9.91-108.59-75-161.2-75-161.2s10.36,196.9,1.57,214.75c-.06.13-.16.22-.23.35,28.28,17.5,33,42.9,33.78,70.08a14.24,14.24,0,0,0,3.57-.45C1008.47,642.44,1036.27,623.64,1027.17,524Z" transform="translate(-334.54 -83.5)"/><path class="cls-6" d="M890,524.86s5.1-3.68,6.8,5.95,5.67,34.44,5.67,34.44l-10.2-8.37S885.65,529.25,890,524.86Z" transform="translate(-334.54 -83.5)"/><path class="cls-2" d="M797.8,394.92c6.32,7.76,12.8,2,12.8,2C806.57,396.94,797.8,394.92,797.8,394.92Z" transform="translate(-334.54 -83.5)"/><path class="cls-6" d="M805.61,336.7s-.42.86-1,2.39c-2.65,6.43-11,25.44-4.06,39.29,10.2,20.26-2.81,36.79,8.29,47.88s23.87,14.17,49.93,3.4,42.88-14.78,36.8-47.46S840.18,308.62,805.61,336.7Z" transform="translate(-334.54 -83.5)"/><path class="cls-8" d="M890,308.85s20,9.52,30,19.45S946,372,943.73,379.94s-11.46-27.67-11.46-27.67,2.87,10.75,0,18.46-14.77,15.55-14.77,12.72,8.23-14.24,9.17-15.18-5.57-21.91-5.57-21.91,1.22,14.71,1.22,18.67-7.22,12.84-13,12.17,5.05-13.59,5.05-13.59l-2.17-21.71s-1.54,26.21-5.5,34.43-5.17-4.08-5.17-8.33-2.7-29.28-2.7-33l-9.18-4.91Z" transform="translate(-334.54 -83.5)"/><path class="cls-6" d="M901.13,190.83s6.35-12.93,14.7-9S908.46,238.31,896,229,901.13,190.83,901.13,190.83Z" transform="translate(-334.54 -83.5)"/><path class="cls-3" d="M798,136.13s-.29-10.76,29.56-14.73,65.28-6,72.08,18.13,4.81,44.41,2.26,62.44,2,76.68-2.26,88.29-17.57,6.24-38.25,6.24-25.82,7-38.25,1.24S806.92,231,804.51,231,784.24,143.78,798,136.13Z" transform="translate(-334.54 -83.5)"/><path class="cls-6" d="M899.67,139.53c-6.79-24.08-42.21-22.1-72.07-18.13S798,136.13,798,136.13c-4.78,2.65-5.77,14.86-4.9,29.69,14.73,4.78,29.18-4.26,41.42-14,5.41,2.89,11.33,2.88,17,.83,6.56,8.34,24.28,12.35,34.94,3.25,6.87,7.35,12.08,10,17.67,10.63A121.43,121.43,0,0,0,899.67,139.53Z" transform="translate(-334.54 -83.5)"/><path class="cls-17" d="M807.88,244.53a28,28,0,0,1-18.7-20.28c-4-16.43-6.24-29.47-13-33.43s-5.38-31.17-9.63-42.22-11.33-23.23-1.13-33.43,27.2,2,34-1.7,9.44-23.8,34.89-23.8,25.46,6.51,36.79,3.68,32.3-16.15,48.45-6.23,24.65,27.76,20.4,47.31S909,165.6,898,157.1s-11.05-13.32-11.05-13.32-4.54,13-19,10.2-12.75-11-12.75-11-11.54,9.66-20.92.29c0,0-23.12,20.68-36.23,17s-13.4-8.22-13.4-.29,5.52,14.73,11.75,29.47c3.94,9.31,6.78,28.74,8.86,41.88C806.45,238.93,807.88,244.53,807.88,244.53Z" transform="translate(-334.54 -83.5)"/><path class="cls-2" d="M807.88,244.53a28,28,0,0,1-18.7-20.28c-4-16.43-6.24-29.47-13-33.43s-5.38-31.17-9.63-42.22-11.33-23.23-1.13-33.43,27.2,2,34-1.7,9.44-23.8,34.89-23.8,25.46,6.51,36.79,3.68,32.3-16.15,48.45-6.23,24.65,27.76,20.4,47.31S909,165.6,898,157.1s-11.05-13.32-11.05-13.32-4.54,13-19,10.2-12.75-11-12.75-11-11.54,9.66-20.92.29c0,0-23.12,20.68-36.23,17s-13.4-8.22-13.4-.29,5.52,14.73,11.75,29.47c3.94,9.31,6.78,28.74,8.86,41.88C806.45,238.93,807.88,244.53,807.88,244.53Z" transform="translate(-334.54 -83.5)"/><path class="cls-3" d="M805.25,200.16s-11.88-21.87-17.87-10.27,17.86,52.05,21,39S805.25,200.16,805.25,200.16Z" transform="translate(-334.54 -83.5)"/><path class="cls-2" d="M805.25,231.28s8.22,9,16.51,27.11,24.17,23.2,31.45,17.43c7.51-6,17.48-7.12,25.5-2.34s22.76-15.65,22.76-23.55c0-1.08,6.35,28.78,4.86,41.67s-24.43,17.15-38,13.54-19.18,1.23-34,1.23-19.74-1.23-21.43-17.17S805.25,231.28,805.25,231.28Z" transform="translate(-334.54 -83.5)"/><path class="cls-18" d="M901.47,249.93A231.4,231.4,0,0,1,905,276c.3,8.38,2.56,18.74-5.12,23.3-8.37,5.56-21.18,6.66-30.65,4.39-19.32-4.65-27.84,4-45.94.34-9.9-1.66-7.1-7.24-18.08-72.79.63,6.68,5.81,59.51,7.52,65.88,1.59,5.41,4.4,8.72,9.87,9.93,21.39,3.67,28.21-4.31,45.87-.28,14.81,3.37,38.47-.68,39.07-17.62C907.66,284.68,904.12,259.78,901.47,249.93Z" transform="translate(-334.54 -83.5)"/><path class="cls-19" d="M810.92,187.41c.55,1.16,3,6,6.8,4.68s4.68-11.9,18.28-10c0,0,2.12-5.31-6-5.31S808.8,183,810.92,187.41Z" transform="translate(-334.54 -83.5)"/><path class="cls-19" d="M896.65,181c-.41,1.21-2.23,6.27-6.19,5.46s-6.07-11.25-19.34-7.71c0,0-2.75-5,5.26-6S898.22,176.27,896.65,181Z" transform="translate(-334.54 -83.5)"/><path class="cls-19" d="M846.22,251.15a.85.85,0,0,1,.54-1.61c.18.06,17.28,5.69,29.52-3.69a.85.85,0,0,1,1,1.35C868.48,254,855.46,254.26,846.22,251.15Z" transform="translate(-334.54 -83.5)"/><path class="cls-6" d="M750.64,375.83c7-6.94,16.15-16.86,10.49-18.77s-13.1,11.78-15.3,9.58,11-21.13,8.22-26.51-5.67-.52-10.8,12.54c-4.23,10.75-6.63,15.68-5.5,6.1s5.51-24.77.15-24-6.5,26-8,27.48-1.48-15.72-4.73-19-6.52.45-3.12,15.52-5.1,5.89-7.37,0-7.08-1.92-2,6.58c4.36,7.27,11.57,22.69,12.52,45.77,7.12-1.62,14.24-2.76,21.36-3.65C741.23,387.14,744.82,381.65,750.64,375.83Z" transform="translate(-334.54 -83.5)"/><path class="cls-20" d="M976.46,362l-21.82.85s11.05,65.42-56,62.52c-2.83-.12-9.68,2.93-29.51,2.93s-28.34,11.89-58.37,20.39S754,472.38,749,405.05c-7.12.89-18.25,2.86-25.37,4.47.16,3.91,7.48,75.67,22.5,86.44s70.27,0,70.27,0,0,77.35,14.73,130.05,24.37,64.6,24.37,64.6,105.29-23.14,105.13-60.06c0-8.51-23-44.21-23-88.41s0-69.13,6.8-84.43c0,0,21.72-13.6,29-29.75S976.46,362,976.46,362Z" transform="translate(-334.54 -83.5)"/><path class="cls-21" d="M957.67,370.52a3.08,3.08,0,0,0-1.42-4.12,3,3,0,0,0-1.22-.3c0,.28.05.59.07.91a2.25,2.25,0,0,1,.76.2,2.18,2.18,0,0,1,1,2.92,2.16,2.16,0,0,1-1.55,1.18c0,.3,0,.6,0,.91A3.05,3.05,0,0,0,957.67,370.52Z" transform="translate(-334.54 -83.5)"/><path class="cls-21" d="M969.66,379.74a3.08,3.08,0,1,0-1.42-4.12A3.08,3.08,0,0,0,969.66,379.74Zm-.61-3.73a2.18,2.18,0,1,1,1,2.92A2.18,2.18,0,0,1,969.05,376Z" transform="translate(-334.54 -83.5)"/><path class="cls-21" d="M960.62,398.3a3.08,3.08,0,1,0-1.42-4.12A3.08,3.08,0,0,0,960.62,398.3Zm-.6-3.72a2.17,2.17,0,1,1,1,2.91A2.18,2.18,0,0,1,960,394.58Z" transform="translate(-334.54 -83.5)"/><path class="cls-21" d="M975.31,402a3.07,3.07,0,0,0,1.42,4.11,2.75,2.75,0,0,0,.58.22l.06-.93a1.33,1.33,0,0,1-.24-.1,2.18,2.18,0,0,1,.42-4.07l0-.92A3.08,3.08,0,0,0,975.31,402Z" transform="translate(-334.54 -83.5)"/><path class="cls-21" d="M951.59,416.87a3.08,3.08,0,1,0-1.42-4.12A3.09,3.09,0,0,0,951.59,416.87Zm-.61-3.73a2.18,2.18,0,1,1,1,2.91A2.17,2.17,0,0,1,951,413.14Z" transform="translate(-334.54 -83.5)"/><path class="cls-21" d="M967.7,424.66a3.08,3.08,0,1,0-1.43-4.12A3.07,3.07,0,0,0,967.7,424.66Zm-.61-3.72a2.17,2.17,0,1,1,1,2.91A2.16,2.16,0,0,1,967.09,420.94Z" transform="translate(-334.54 -83.5)"/><path class="cls-21" d="M926.45,427.63a3.07,3.07,0,1,0-1.42-4.11A3.06,3.06,0,0,0,926.45,427.63Zm-.61-3.72a2.18,2.18,0,1,1,1,2.91A2.17,2.17,0,0,1,925.84,423.91Z" transform="translate(-334.54 -83.5)"/><path class="cls-21" d="M942.55,435.43a3.08,3.08,0,1,0-1.42-4.12A3.08,3.08,0,0,0,942.55,435.43Zm-.61-3.72a2.18,2.18,0,1,1,1,2.91A2.17,2.17,0,0,1,941.94,431.71Z" transform="translate(-334.54 -83.5)"/><path class="cls-21" d="M958.66,443.22a3.08,3.08,0,1,0-1.42-4.11A3.08,3.08,0,0,0,958.66,443.22Zm-.61-3.72a2.18,2.18,0,1,1,1,2.91A2.17,2.17,0,0,1,958.05,439.5Z" transform="translate(-334.54 -83.5)"/><path class="cls-21" d="M885.2,430.61a3.08,3.08,0,0,0,4.12-1.42,3,3,0,0,0,.14-2.33l-.91.13a2.2,2.2,0,0,1,0,1.81,2.18,2.18,0,0,1-4.12-1.28l-.91.09A3.06,3.06,0,0,0,885.2,430.61Z" transform="translate(-334.54 -83.5)"/><path class="cls-21" d="M901.3,438.41a3.08,3.08,0,1,0-1.42-4.12A3.09,3.09,0,0,0,901.3,438.41Zm-.61-3.73a2.18,2.18,0,1,1,1,2.91A2.18,2.18,0,0,1,900.69,434.68Z" transform="translate(-334.54 -83.5)"/><path class="cls-21" d="M917.41,446.2a3.08,3.08,0,1,0-1.42-4.12A3.09,3.09,0,0,0,917.41,446.2Zm-.61-3.72a2.18,2.18,0,1,1,1,2.91A2.18,2.18,0,0,1,916.8,442.48Z" transform="translate(-334.54 -83.5)"/><path class="cls-21" d="M933.51,454a3.08,3.08,0,1,0-1.42-4.11A3.08,3.08,0,0,0,933.51,454Zm-.6-3.72a2.18,2.18,0,1,1,1,2.91A2.17,2.17,0,0,1,932.91,450.27Z" transform="translate(-334.54 -83.5)"/><path class="cls-21" d="M860.06,441.38a3.08,3.08,0,1,0-1.42-4.11A3.06,3.06,0,0,0,860.06,441.38Zm-.61-3.72a2.18,2.18,0,1,1,1,2.91A2.18,2.18,0,0,1,859.45,437.66Z" transform="translate(-334.54 -83.5)"/><path class="cls-21" d="M876.16,449.18a3.08,3.08,0,1,0-1.42-4.12A3.09,3.09,0,0,0,876.16,449.18Zm-.61-3.73a2.18,2.18,0,1,1,1,2.92A2.17,2.17,0,0,1,875.55,445.45Z" transform="translate(-334.54 -83.5)"/><path class="cls-21" d="M892.27,457a3.08,3.08,0,1,0-1.42-4.12A3.08,3.08,0,0,0,892.27,457Zm-.61-3.72a2.18,2.18,0,1,1,1,2.91A2.18,2.18,0,0,1,891.66,453.25Z" transform="translate(-334.54 -83.5)"/><path class="cls-21" d="M908.38,464.76a3.07,3.07,0,1,0-1.43-4.11A3.07,3.07,0,0,0,908.38,464.76Zm-.62-3.72a2.18,2.18,0,1,1,1,2.91A2.18,2.18,0,0,1,907.76,461Z" transform="translate(-334.54 -83.5)"/><path class="cls-21" d="M924.48,472.56a3.08,3.08,0,1,0-1.42-4.12A3.09,3.09,0,0,0,924.48,472.56Zm-.61-3.73a2.18,2.18,0,1,1,1,2.92A2.17,2.17,0,0,1,923.87,468.83Z" transform="translate(-334.54 -83.5)"/><path class="cls-21" d="M939.16,476.23a3.1,3.1,0,0,0,.17,3c.15-1.34.32-2.64.5-3.89A2.86,2.86,0,0,0,939.16,476.23Z" transform="translate(-334.54 -83.5)"/><path class="cls-21" d="M834.91,452.15a3.08,3.08,0,1,0-1.42-4.11A3.08,3.08,0,0,0,834.91,452.15Zm-.61-3.72a2.18,2.18,0,1,1,1,2.91A2.19,2.19,0,0,1,834.3,448.43Z" transform="translate(-334.54 -83.5)"/><path class="cls-21" d="M851,459.94a3.08,3.08,0,1,0-1.42-4.11A3.08,3.08,0,0,0,851,459.94Zm-.61-3.72a2.18,2.18,0,1,1,1,2.92A2.17,2.17,0,0,1,850.41,456.22Z" transform="translate(-334.54 -83.5)"/><path class="cls-21" d="M867.12,467.74a3.08,3.08,0,1,0-1.42-4.12A3.08,3.08,0,0,0,867.12,467.74Zm-.6-3.72a2.18,2.18,0,1,1,1,2.91A2.18,2.18,0,0,1,866.52,464Z" transform="translate(-334.54 -83.5)"/><path class="cls-21" d="M883.23,475.53a3.08,3.08,0,1,0-1.42-4.11A3.08,3.08,0,0,0,883.23,475.53Zm-.61-3.72a2.18,2.18,0,1,1,1,2.91A2.17,2.17,0,0,1,882.62,471.81Z" transform="translate(-334.54 -83.5)"/><path class="cls-21" d="M899.34,483.33a3.08,3.08,0,1,0-1.42-4.12A3.07,3.07,0,0,0,899.34,483.33Zm-.61-3.73a2.18,2.18,0,1,1,1,2.92A2.17,2.17,0,0,1,898.73,479.6Z" transform="translate(-334.54 -83.5)"/><path class="cls-21" d="M915.44,491.12A3.08,3.08,0,1,0,914,487,3.08,3.08,0,0,0,915.44,491.12Zm-.61-3.72a2.18,2.18,0,1,1,1,2.91A2.17,2.17,0,0,1,914.83,487.4Z" transform="translate(-334.54 -83.5)"/><path class="cls-21" d="M934.24,493.38a3.08,3.08,0,1,0,1.42,4.12A3.06,3.06,0,0,0,934.24,493.38Zm.61,3.72a2.18,2.18,0,1,1-1-2.91A2.18,2.18,0,0,1,934.85,497.1Z" transform="translate(-334.54 -83.5)"/><path class="cls-21" d="M731.94,418.42a3.08,3.08,0,1,0,1.42,4.11A3.08,3.08,0,0,0,731.94,418.42Zm.61,3.72a2.18,2.18,0,1,1-1-2.91A2.17,2.17,0,0,1,732.55,422.14Z" transform="translate(-334.54 -83.5)"/><path class="cls-21" d="M748.05,426.21a3.08,3.08,0,1,0,1.42,4.12A3.08,3.08,0,0,0,748.05,426.21Zm.61,3.72a2.18,2.18,0,1,1-3.92-1.9,2.18,2.18,0,0,1,3.92,1.9Z" transform="translate(-334.54 -83.5)"/><path class="cls-21" d="M793.67,455.13a3.09,3.09,0,0,0,4.12-1.42,3.19,3.19,0,0,0,.3-1.27l-.93.28a1.85,1.85,0,0,1-.19.59,2.18,2.18,0,0,1-2.91,1,2.2,2.2,0,0,1-.68-.52l-.94.25A3.08,3.08,0,0,0,793.67,455.13Z" transform="translate(-334.54 -83.5)"/><path class="cls-21" d="M812.47,457.38a3.08,3.08,0,1,0,1.42,4.12A3.09,3.09,0,0,0,812.47,457.38Zm.61,3.73a2.18,2.18,0,1,1-1-2.91A2.17,2.17,0,0,1,813.08,461.11Z" transform="translate(-334.54 -83.5)"/><path class="cls-21" d="M825.88,470.72a3.08,3.08,0,1,0-1.42-4.12A3.08,3.08,0,0,0,825.88,470.72Zm-.61-3.72a2.17,2.17,0,1,1,1,2.91A2.17,2.17,0,0,1,825.27,467Z" transform="translate(-334.54 -83.5)"/><path class="cls-21" d="M842,478.51a3.08,3.08,0,1,0-1.42-4.12A3.08,3.08,0,0,0,842,478.51Zm-.61-3.72a2.18,2.18,0,1,1,3.92,1.9,2.18,2.18,0,1,1-3.92-1.9Z" transform="translate(-334.54 -83.5)"/><path class="cls-21" d="M858.09,486.3a3.07,3.07,0,1,0-1.42-4.11A3.06,3.06,0,0,0,858.09,486.3Zm-.61-3.72a2.18,2.18,0,1,1,1,2.91A2.17,2.17,0,0,1,857.48,482.58Z" transform="translate(-334.54 -83.5)"/><path class="cls-21" d="M874.19,494.1a3.08,3.08,0,1,0-1.42-4.12A3.08,3.08,0,0,0,874.19,494.1Zm-.61-3.72a2.18,2.18,0,1,1,1,2.91A2.19,2.19,0,0,1,873.58,490.38Z" transform="translate(-334.54 -83.5)"/><path class="cls-21" d="M890.3,501.89a3.08,3.08,0,1,0-1.42-4.12A3.08,3.08,0,0,0,890.3,501.89Zm-.61-3.72a2.18,2.18,0,1,1,1,2.91A2.19,2.19,0,0,1,889.69,498.17Z" transform="translate(-334.54 -83.5)"/><path class="cls-21" d="M909.1,504.15a3.08,3.08,0,1,0,1.42,4.12A3.08,3.08,0,0,0,909.1,504.15Zm.61,3.72a2.18,2.18,0,1,1-1-2.91A2.19,2.19,0,0,1,909.71,507.87Z" transform="translate(-334.54 -83.5)"/><path class="cls-21" d="M925.21,511.94a3.08,3.08,0,1,0,1.42,4.12A3.08,3.08,0,0,0,925.21,511.94Zm.61,3.72a2.18,2.18,0,1,1-1-2.91A2.19,2.19,0,0,1,925.82,515.66Z" transform="translate(-334.54 -83.5)"/><path class="cls-21" d="M937.66,524.55c0-1.39,0-2.76,0-4.11a3.38,3.38,0,0,0-.49.72A3.08,3.08,0,0,0,937.66,524.55Z" transform="translate(-334.54 -83.5)"/><path class="cls-21" d="M739,444.77a3.08,3.08,0,1,0,1.42,4.12A3.09,3.09,0,0,0,739,444.77Zm.61,3.73a2.18,2.18,0,1,1-1-2.91A2.17,2.17,0,0,1,739.62,448.5Z" transform="translate(-334.54 -83.5)"/><path class="cls-21" d="M755.12,452.57a3.08,3.08,0,1,0,1.42,4.11A3.08,3.08,0,0,0,755.12,452.57Zm.61,3.72a2.18,2.18,0,1,1-1-2.91A2.2,2.2,0,0,1,755.73,456.29Z" transform="translate(-334.54 -83.5)"/><path class="cls-21" d="M771.22,460.36a3.08,3.08,0,1,0,1.42,4.12A3.09,3.09,0,0,0,771.22,460.36Zm.61,3.73a2.18,2.18,0,1,1-1-2.92A2.18,2.18,0,0,1,771.83,464.09Z" transform="translate(-334.54 -83.5)"/><path class="cls-21" d="M787.33,468.16a3.08,3.08,0,1,0,1.42,4.11A3.08,3.08,0,0,0,787.33,468.16Zm.61,3.72a2.18,2.18,0,1,1-1-2.91A2.18,2.18,0,0,1,787.94,471.88Z" transform="translate(-334.54 -83.5)"/><path class="cls-21" d="M803.43,476a3.08,3.08,0,1,0,1.42,4.12A3.09,3.09,0,0,0,803.43,476Zm.61,3.72a2.17,2.17,0,1,1-1-2.91A2.19,2.19,0,0,1,804,479.67Z" transform="translate(-334.54 -83.5)"/><path class="cls-21" d="M821,487.86a3.08,3.08,0,1,0-4.12,1.42A3.09,3.09,0,0,0,821,487.86Zm-.81-.4a2.18,2.18,0,1,1-1-2.91A2.17,2.17,0,0,1,820.15,487.46Z" transform="translate(-334.54 -83.5)"/><path class="cls-21" d="M833,497.08a3.08,3.08,0,1,0-1.43-4.12A3.08,3.08,0,0,0,833,497.08Zm-.61-3.73a2.18,2.18,0,1,1,1,2.91A2.17,2.17,0,0,1,832.34,493.35Z" transform="translate(-334.54 -83.5)"/><path class="cls-21" d="M849.05,504.87a3.08,3.08,0,1,0-1.42-4.12A3.09,3.09,0,0,0,849.05,504.87Zm-.61-3.72a2.18,2.18,0,1,1,1,2.91A2.18,2.18,0,0,1,848.44,501.15Z" transform="translate(-334.54 -83.5)"/><path class="cls-21" d="M867.85,507.12a3.08,3.08,0,1,0,1.43,4.12A3.09,3.09,0,0,0,867.85,507.12Zm.61,3.73a2.18,2.18,0,1,1-1-2.92A2.17,2.17,0,0,1,868.46,510.85Z" transform="translate(-334.54 -83.5)"/><path class="cls-21" d="M884,514.92a3.08,3.08,0,1,0,1.42,4.12A3.08,3.08,0,0,0,884,514.92Zm.61,3.72a2.18,2.18,0,1,1-1-2.91A2.17,2.17,0,0,1,884.57,518.64Z" transform="translate(-334.54 -83.5)"/><path class="cls-21" d="M900.06,522.71a3.08,3.08,0,1,0,1.43,4.12A3.08,3.08,0,0,0,900.06,522.71Zm.61,3.73a2.18,2.18,0,1,1-1-2.92A2.18,2.18,0,0,1,900.67,526.44Z" transform="translate(-334.54 -83.5)"/><path class="cls-21" d="M917.59,534.62a3.08,3.08,0,1,0-4.12,1.42A3.06,3.06,0,0,0,917.59,534.62Zm-4.73-2.3a2.18,2.18,0,1,1,1,2.91A2.17,2.17,0,0,1,912.86,532.32Z" transform="translate(-334.54 -83.5)"/><path class="cls-21" d="M933.7,542.42a3.08,3.08,0,1,0-4.12,1.42A3.09,3.09,0,0,0,933.7,542.42ZM929,540.11a2.18,2.18,0,1,1,1,2.92A2.18,2.18,0,0,1,929,540.11Z" transform="translate(-334.54 -83.5)"/><path class="cls-21" d="M746.08,471.13a3.08,3.08,0,1,0,1.42,4.12A3.09,3.09,0,0,0,746.08,471.13Zm.61,3.72a2.18,2.18,0,1,1-1-2.91A2.17,2.17,0,0,1,746.69,474.85Z" transform="translate(-334.54 -83.5)"/><path class="cls-21" d="M762.18,478.93A3.07,3.07,0,1,0,763.6,483,3.07,3.07,0,0,0,762.18,478.93Zm.61,3.72a2.18,2.18,0,1,1-1-2.91A2.17,2.17,0,0,1,762.79,482.65Z" transform="translate(-334.54 -83.5)"/><path class="cls-21" d="M778.29,486.72a3.08,3.08,0,1,0,1.42,4.12A3.08,3.08,0,0,0,778.29,486.72Zm.61,3.72a2.18,2.18,0,1,1-1-2.91A2.19,2.19,0,0,1,778.9,490.44Z" transform="translate(-334.54 -83.5)"/><path class="cls-21" d="M794.4,494.51a3.08,3.08,0,0,0-3.37,5.1l1.67-.18a2,2,0,0,1-.61-.19,2.18,2.18,0,1,1,2.91-1,2.11,2.11,0,0,1-1.16,1.08l1.68-.19a4,4,0,0,0,.3-.49A3.1,3.1,0,0,0,794.4,494.51Z" transform="translate(-334.54 -83.5)"/><path class="cls-21" d="M823.91,515.64a3.08,3.08,0,1,0-1.42-4.12A3.09,3.09,0,0,0,823.91,515.64Zm-.61-3.72a2.18,2.18,0,1,1,1,2.91A2.18,2.18,0,0,1,823.3,511.92Z" transform="translate(-334.54 -83.5)"/><path class="cls-21" d="M844.13,522a3.08,3.08,0,1,0-4.11,1.42A3.08,3.08,0,0,0,844.13,522Zm-.81-.39a2.18,2.18,0,1,1-1-2.91A2.17,2.17,0,0,1,843.32,521.62Z" transform="translate(-334.54 -83.5)"/><path class="cls-21" d="M858.82,525.69a3.08,3.08,0,1,0,1.42,4.12A3.08,3.08,0,0,0,858.82,525.69Zm.61,3.72a2.18,2.18,0,1,1-3.92-1.9,2.18,2.18,0,0,1,3.92,1.9Z" transform="translate(-334.54 -83.5)"/><path class="cls-21" d="M874.92,533.48a3.08,3.08,0,1,0,1.42,4.12A3.07,3.07,0,0,0,874.92,533.48Zm.61,3.73a2.18,2.18,0,1,1-1-2.92A2.17,2.17,0,0,1,875.53,537.21Z" transform="translate(-334.54 -83.5)"/><path class="cls-21" d="M892.45,545.39a3.08,3.08,0,1,0-4.12,1.43A3.07,3.07,0,0,0,892.45,545.39Zm-4.73-2.3a2.18,2.18,0,1,1,1,2.91A2.17,2.17,0,0,1,887.72,543.09Z" transform="translate(-334.54 -83.5)"/><path class="cls-21" d="M903,550.49a3.08,3.08,0,1,0,4.11-1.42A3.08,3.08,0,0,0,903,550.49Zm.81.4a2.17,2.17,0,1,1,1,2.91A2.18,2.18,0,0,1,903.83,550.89Z" transform="translate(-334.54 -83.5)"/><path class="cls-21" d="M919.12,558.29a3.08,3.08,0,1,0,4.12-1.43A3.07,3.07,0,0,0,919.12,558.29Zm.81.39a2.18,2.18,0,1,1,1,2.91A2.19,2.19,0,0,1,919.93,558.68Z" transform="translate(-334.54 -83.5)"/><path class="cls-21" d="M935.23,566.08a3.08,3.08,0,0,0,5.16,3.29c-.1-.48-.19-1-.28-1.43a3.26,3.26,0,0,1-.15.44,2.18,2.18,0,1,1-3.92-1.91,2.17,2.17,0,0,1,2.91-1,2.11,2.11,0,0,1,.85.74l-.24-1.44-.22-.11A3.06,3.06,0,0,0,935.23,566.08Z" transform="translate(-334.54 -83.5)"/><path class="cls-21" d="M753.15,497.49a3.09,3.09,0,0,0-3.34.42l1.05.39a2.16,2.16,0,0,1,1.89,0,2.23,2.23,0,0,1,.89.8l1.1.25A3.1,3.1,0,0,0,753.15,497.49Z" transform="translate(-334.54 -83.5)"/><path class="cls-21" d="M819,532.78a3.06,3.06,0,0,0-1.42-4.11l-.14-.06c0,.35,0,.7.06,1.06a2.17,2.17,0,0,1,.69,2.72,2.21,2.21,0,0,1-.5.66c0,.35,0,.7.07,1.06A3.08,3.08,0,0,0,819,532.78Z" transform="translate(-334.54 -83.5)"/><path class="cls-21" d="M829.56,537.88a3.08,3.08,0,1,0,4.11-1.42A3.08,3.08,0,0,0,829.56,537.88Zm4.72,2.3a2.18,2.18,0,1,1-1-2.91A2.18,2.18,0,0,1,834.28,540.18Z" transform="translate(-334.54 -83.5)"/><path class="cls-21" d="M851.2,548.37a3.08,3.08,0,1,0-4.12,1.42A3.09,3.09,0,0,0,851.2,548.37Zm-.81-.39a2.18,2.18,0,0,1-3.92-1.91,2.18,2.18,0,1,1,3.92,1.91Z" transform="translate(-334.54 -83.5)"/><path class="cls-21" d="M861.77,553.47a3.08,3.08,0,1,0,4.12-1.42A3.06,3.06,0,0,0,861.77,553.47Zm.81.39a2.18,2.18,0,1,1,1,2.91A2.17,2.17,0,0,1,862.58,553.86Z" transform="translate(-334.54 -83.5)"/><path class="cls-21" d="M877.87,561.26a3.08,3.08,0,1,0,4.12-1.42A3.09,3.09,0,0,0,877.87,561.26Zm.81.4a2.18,2.18,0,1,1,1,2.91A2.19,2.19,0,0,1,878.68,561.66Z" transform="translate(-334.54 -83.5)"/><path class="cls-21" d="M894,569.06a3.08,3.08,0,1,0,4.12-1.43A3.06,3.06,0,0,0,894,569.06Zm.81.39a2.18,2.18,0,1,1,1,2.91A2.19,2.19,0,0,1,894.79,569.45Z" transform="translate(-334.54 -83.5)"/><path class="cls-21" d="M910.09,576.85a3.08,3.08,0,1,0,4.11-1.42A3.08,3.08,0,0,0,910.09,576.85Zm.81.39a2.18,2.18,0,1,1,1,2.92A2.17,2.17,0,0,1,910.9,577.24Z" transform="translate(-334.54 -83.5)"/><path class="cls-21" d="M926.19,584.64a3.08,3.08,0,1,0,4.12-1.42A3.08,3.08,0,0,0,926.19,584.64Zm.81.4a2.18,2.18,0,1,1,1,2.91A2.19,2.19,0,0,1,927,585Z" transform="translate(-334.54 -83.5)"/><path class="cls-21" d="M942.3,592.44a3.07,3.07,0,0,0,5.3,3.08l-.42-1.22a2.32,2.32,0,0,1-.16.44,2.17,2.17,0,1,1-.59-2.65c-.13-.41-.27-.82-.4-1.23A3.08,3.08,0,0,0,942.3,592.44Z" transform="translate(-334.54 -83.5)"/><path class="cls-21" d="M824.64,555a3.08,3.08,0,1,0,1.42,4.12A3.08,3.08,0,0,0,824.64,555Zm.61,3.73a2.18,2.18,0,1,1-1-2.92A2.17,2.17,0,0,1,825.25,558.75Z" transform="translate(-334.54 -83.5)"/><path class="cls-21" d="M836.63,564.24a3.08,3.08,0,1,0,4.11-1.42A3.08,3.08,0,0,0,836.63,564.24Zm4.72,2.3a2.18,2.18,0,1,1-1-2.91A2.18,2.18,0,0,1,841.35,566.54Z" transform="translate(-334.54 -83.5)"/><path class="cls-21" d="M852.73,572a3.08,3.08,0,1,0,4.12-1.42A3.08,3.08,0,0,0,852.73,572Zm.81.4a2.18,2.18,0,1,1,1,2.91A2.19,2.19,0,0,1,853.54,572.43Z" transform="translate(-334.54 -83.5)"/><path class="cls-21" d="M868.84,579.83a3.08,3.08,0,1,0,4.12-1.42A3.07,3.07,0,0,0,868.84,579.83Zm.81.39a2.18,2.18,0,1,1,1,2.91A2.17,2.17,0,0,1,869.65,580.22Z" transform="translate(-334.54 -83.5)"/><path class="cls-21" d="M884.94,587.62a3.08,3.08,0,1,0,4.12-1.42A3.1,3.1,0,0,0,884.94,587.62Zm.81.39a2.18,2.18,0,1,1,1,2.92A2.19,2.19,0,0,1,885.75,588Z" transform="translate(-334.54 -83.5)"/><path class="cls-21" d="M901.05,595.41a3.08,3.08,0,1,0,4.11-1.42A3.08,3.08,0,0,0,901.05,595.41Zm.81.4a2.18,2.18,0,1,1,1,2.91A2.19,2.19,0,0,1,901.86,595.81Z" transform="translate(-334.54 -83.5)"/><path class="cls-21" d="M921.27,601.79a3.08,3.08,0,1,0,1.42,4.11A3.08,3.08,0,0,0,921.27,601.79Zm.61,3.72a2.18,2.18,0,1,1-1-2.91A2.18,2.18,0,0,1,921.88,605.51Z" transform="translate(-334.54 -83.5)"/><path class="cls-21" d="M933.26,611a3.08,3.08,0,1,0,4.12-1.42A3.08,3.08,0,0,0,933.26,611Zm.81.4a2.18,2.18,0,1,1,1,2.91A2.17,2.17,0,0,1,934.07,611.4Z" transform="translate(-334.54 -83.5)"/><path class="cls-21" d="M950.79,622.91a3.08,3.08,0,1,0-1.42-4.11A3.06,3.06,0,0,0,950.79,622.91Zm-.62-3.72a2.18,2.18,0,1,1,1,2.91A2.19,2.19,0,0,1,950.17,619.19Z" transform="translate(-334.54 -83.5)"/><path class="cls-21" d="M831.71,581.38a3.08,3.08,0,1,0,1.42,4.12A3.08,3.08,0,0,0,831.71,581.38Zm.61,3.72a2.18,2.18,0,1,1-1-2.91A2.19,2.19,0,0,1,832.32,585.1Z" transform="translate(-334.54 -83.5)"/><path class="cls-21" d="M845.11,594.71a3.08,3.08,0,1,0-1.41-4.11A3.08,3.08,0,0,0,845.11,594.71ZM844.5,591a2.18,2.18,0,1,1,1,2.91A2.18,2.18,0,0,1,844.5,591Z" transform="translate(-334.54 -83.5)"/><path class="cls-21" d="M859.8,598.39a3.08,3.08,0,1,0,4.12-1.42A3.09,3.09,0,0,0,859.8,598.39Zm.81.39a2.18,2.18,0,1,1,1,2.92A2.18,2.18,0,0,1,860.61,598.78Z" transform="translate(-334.54 -83.5)"/><path class="cls-21" d="M875.91,606.18a3.08,3.08,0,1,0,4.11-1.42A3.08,3.08,0,0,0,875.91,606.18Zm.81.4a2.17,2.17,0,1,1,1,2.91A2.18,2.18,0,0,1,876.72,606.58Z" transform="translate(-334.54 -83.5)"/><path class="cls-21" d="M896.13,612.56a3.08,3.08,0,1,0,1.42,4.12A3.08,3.08,0,0,0,896.13,612.56Zm.61,3.72a2.18,2.18,0,1,1-1-2.91A2.17,2.17,0,0,1,896.74,616.28Z" transform="translate(-334.54 -83.5)"/><path class="cls-21" d="M912.23,620.35a3.08,3.08,0,1,0,1.42,4.12A3.09,3.09,0,0,0,912.23,620.35Zm.61,3.72a2.17,2.17,0,1,1-1-2.91A2.18,2.18,0,0,1,912.84,624.07Z" transform="translate(-334.54 -83.5)"/><path class="cls-21" d="M928.34,628.14a3.08,3.08,0,1,0,1.42,4.12A3.09,3.09,0,0,0,928.34,628.14Zm.61,3.73a2.18,2.18,0,1,1-1-2.91A2.17,2.17,0,0,1,929,631.87Z" transform="translate(-334.54 -83.5)"/><path class="cls-21" d="M941.75,641.48a3.08,3.08,0,1,0-1.42-4.12A3.09,3.09,0,0,0,941.75,641.48Zm-.61-3.73a2.18,2.18,0,0,1,3.92,1.91,2.18,2.18,0,1,1-3.92-1.91Z" transform="translate(-334.54 -83.5)"/><path class="cls-21" d="M838.78,607.74a3.08,3.08,0,1,0,1.42,4.12A3.08,3.08,0,0,0,838.78,607.74Zm.6,3.72a2.18,2.18,0,1,1-1-2.91A2.18,2.18,0,0,1,839.38,611.46Z" transform="translate(-334.54 -83.5)"/><path class="cls-21" d="M856.3,619.65a3.08,3.08,0,1,0-4.12,1.42A3.08,3.08,0,0,0,856.3,619.65Zm-.81-.39a2.18,2.18,0,1,1-1-2.91A2.17,2.17,0,0,1,855.49,619.26Z" transform="translate(-334.54 -83.5)"/><path class="cls-21" d="M871,623.33a3.08,3.08,0,1,0,1.42,4.12A3.08,3.08,0,0,0,871,623.33Zm.61,3.72a2.18,2.18,0,1,1-1-2.91A2.18,2.18,0,0,1,871.6,627.05Z" transform="translate(-334.54 -83.5)"/><path class="cls-21" d="M887.09,631.12a3.08,3.08,0,1,0,1.42,4.12A3.07,3.07,0,0,0,887.09,631.12Zm.61,3.72a2.17,2.17,0,1,1-1-2.91A2.18,2.18,0,0,1,887.7,634.84Z" transform="translate(-334.54 -83.5)"/><path class="cls-21" d="M903.2,638.91a3.09,3.09,0,1,0,1.42,4.12A3.09,3.09,0,0,0,903.2,638.91Zm.61,3.73a2.18,2.18,0,1,1-1-2.91A2.17,2.17,0,0,1,903.81,642.64Z" transform="translate(-334.54 -83.5)"/><path class="cls-21" d="M919.3,646.71a3.08,3.08,0,1,0,1.42,4.12A3.08,3.08,0,0,0,919.3,646.71Zm.61,3.72a2.17,2.17,0,1,1-1-2.91A2.18,2.18,0,0,1,919.91,650.43Z" transform="translate(-334.54 -83.5)"/><path class="cls-21" d="M935.41,654.5a3.08,3.08,0,1,0,1.42,4.12A3.09,3.09,0,0,0,935.41,654.5Zm.61,3.72a2.18,2.18,0,1,1-1-2.91A2.17,2.17,0,0,1,936,658.22Z" transform="translate(-334.54 -83.5)"/><path class="cls-21" d="M845.84,634.1a3.08,3.08,0,1,0,1.42,4.12A3.06,3.06,0,0,0,845.84,634.1Zm.61,3.72a2.18,2.18,0,1,1-1-2.91A2.18,2.18,0,0,1,846.45,637.82Z" transform="translate(-334.54 -83.5)"/><path class="cls-21" d="M862,641.89a3.08,3.08,0,1,0,1.42,4.12A3.09,3.09,0,0,0,862,641.89Zm.61,3.72a2.18,2.18,0,1,1-1-2.91A2.18,2.18,0,0,1,862.56,645.61Z" transform="translate(-334.54 -83.5)"/><path class="cls-21" d="M878.05,649.69a3.07,3.07,0,1,0,1.43,4.11A3.06,3.06,0,0,0,878.05,649.69Zm.61,3.72a2.18,2.18,0,1,1-1-2.91A2.17,2.17,0,0,1,878.66,653.41Z" transform="translate(-334.54 -83.5)"/><path class="cls-21" d="M894.16,657.48a3.08,3.08,0,1,0,1.42,4.12A3.08,3.08,0,0,0,894.16,657.48Zm.61,3.72a2.18,2.18,0,1,1-1-2.91A2.19,2.19,0,0,1,894.77,661.2Z" transform="translate(-334.54 -83.5)"/><path class="cls-21" d="M910.27,665.27a3.08,3.08,0,1,0,1.42,4.12A3.09,3.09,0,0,0,910.27,665.27Zm.6,3.72a2.17,2.17,0,1,1-3.91-1.9,2.17,2.17,0,1,1,3.91,1.9Z" transform="translate(-334.54 -83.5)"/><path class="cls-21" d="M852.91,660.46a3.08,3.08,0,1,0,1.42,4.11A3.08,3.08,0,0,0,852.91,660.46Zm.61,3.72a2.18,2.18,0,1,1-1-2.91A2.17,2.17,0,0,1,853.52,664.18Z" transform="translate(-334.54 -83.5)"/><path class="cls-21" d="M869,668.25a3.08,3.08,0,1,0,1.42,4.12A3.08,3.08,0,0,0,869,668.25Zm.61,3.72a2.18,2.18,0,1,1-1-2.91A2.19,2.19,0,0,1,869.63,672Z" transform="translate(-334.54 -83.5)"/><path class="cls-21" d="M885.12,676a3.08,3.08,0,1,0,1.42,4.12A3.08,3.08,0,0,0,885.12,676Zm.61,3.73a2.18,2.18,0,1,1-1-2.92A2.17,2.17,0,0,1,885.73,679.77Z" transform="translate(-334.54 -83.5)"/><path class="cls-21" d="M860,686.81a3.09,3.09,0,0,0-4.12,1.43,3.12,3.12,0,0,0-.15,2.32l.89-.21a2.15,2.15,0,0,1,.07-1.72,2.18,2.18,0,0,1,4.13.72l.88-.22A3.09,3.09,0,0,0,860,686.81Z" transform="translate(-334.54 -83.5)"/><path class="cls-6" d="M844.06,411.81l11,18.67s14.06,17.34,34.34.38a6.75,6.75,0,0,0,2.14-7.21l-10-31.1Z" transform="translate(-334.54 -83.5)"/><path class="cls-3" d="M847,538.46s62-66.29,58.33-70c-2.37-2.38-19.72,17.68-27,21.41a1.38,1.38,0,0,1-1.65-2.15c9.58-10.78,28.63-33,28.63-39.38,0-7.12-31.69,29.46-39.57,37-1.54,1.47-2.64-.76-2.64-.76s40.28-43.35,39.38-49.3C901.09,426,865,465.8,854.91,477a3.26,3.26,0,0,1-4.25.56s32.86-34.28,26.92-40.23c-4.4-4.39-25.27,20.45-35.86,33.72a2,2,0,0,1-3.43-1.76c3.21-11.89,7.3-29.72.89-23.32-9.34,9.35-9.2,44.63-16.29,51.71-5.13,5.14-44.58,66.05-78,92.09,1,20.79,4.53,43.36,16.15,59.27C808,613.46,847,538.46,847,538.46Z" transform="translate(-334.54 -83.5)"/><path class="cls-22" d="M711.6,599.38c-31.79-18.7,3.06-93.22,3.06-93.22s5.1-157.54-19.55-148.75c-5.66,2-58.32,49.38-75.38,131.35s23,167.85,89.12,178c17.47,2.69,41.67-5,58.51-17.79-11.62-15.91-21.44-38.48-22.48-59.27C732.19,599.64,720.35,604.52,711.6,599.38Z" transform="translate(-334.54 -83.5)"/><path class="cls-6" d="M625.41,321.15v-12s-13.64,0-32.86,12c-26.07,16.25-146.77,193.79-137.7,228.93s93.5,26.07,138.26-4.25c26.54-18,66.87-23.52,78.2-26.35s9.07-8.5,9.07-15.3,6-5.67,4.53-12.18-2.55-6.24-2.55-12.47-.57-12.47-5.1-12.47-18.41,10.2-22.38,10.2-2-9.35,7.37-9.35,2-11.33-10.77-4.81-43.07,39.1-60.63,46.18-81.6,18.13-81.6,4.81,69.13-60.91,79.61-71.39S622,412.1,625.41,321.15Z" transform="translate(-334.54 -83.5)"/><path class="cls-7" d="M812.41,327.33S792,329.65,792,342.68s3.4,16.09,3.4,16.09-8.5,2-3.4,18.74,23.8,17.3,23.8,17.3-4,9.07,5.1,18.13S857,408.82,857,408.82a34.53,34.53,0,0,0,14.51,19.4c9.2,5.7,29.18.55,36-4.22,7.91-5.55,12.47-22.67,12.47-36.84s-17.43-30.1-17.43-30.1,3-22.6-9.85-33.43c-10.57-8.93-30.95-10-37.5-4.89-3.19,2.48-.82,4.67-16.12-1S812.41,327.33,812.41,327.33Z" transform="translate(-334.54 -83.5)"/><path class="cls-8" d="M953.56,577.91c-9.09,17.13-42.34-4-44.25-5.91s-19.55-27.31-23.8-31.56-23.52-35.7-33.15-37.11,28.48,38.11,25.5,41.08-32.87-36.83-35.7-30.75,29.75,38.12,28.05,44.07-7.65-2.55-18.42-17.57-24.36-16.15-17.52-2.55,27.3,30.18,24.32,33.15-25.07-18.84-27.76-21.53-6.5,5.36,2,13.84,37.54,37,41.93,41.41,9.35-2,15.3,4c5.61,5.62,74.74,39.95,97.3,39.55C986.56,620.81,981.84,595.41,953.56,577.91Z" transform="translate(-334.54 -83.5)"/><path class="cls-8" d="M895.53,524.17s7,3,7,10.61,1.69,30.47,1.69,30.47l-12.31-7.52S891.89,531.1,895.53,524.17Z" transform="translate(-334.54 -83.5)"/><path class="cls-6" d="M797.85,198.22s-7.47-6.76-7.47,0,9.56,20.08,11.83,20.08S797.85,198.22,797.85,198.22Z" transform="translate(-334.54 -83.5)"/><path class="cls-6" d="M717.21,249.33s9.65-14.09-6.79-11.8-6.81,17.32-1.57,17.32S717.21,249.33,717.21,249.33Z" transform="translate(-334.54 -83.5)"/><path class="cls-21" d="M660.61,840.74c.67-4.44-6.06-5.47-6.72-1-1.79,11.78-40.84,276,18.11,394.89,2.49-.09,5-.12,7.58-.12C619.48,1118.87,660.17,843.63,660.61,840.74Z" transform="translate(-334.54 -83.5)"/><path class="cls-19" d="M839,203.14c0,3.68-2.47,6.66-5.52,6.66s-5.53-3-5.53-6.66,2.48-6.66,5.53-6.66S839,199.46,839,203.14Z" transform="translate(-334.54 -83.5)"/><path class="cls-19" d="M885.51,200.1c0,3.68-2.47,6.66-5.53,6.66s-5.52-3-5.52-6.66,2.47-6.66,5.52-6.66S885.51,196.42,885.51,200.1Z" transform="translate(-334.54 -83.5)"/><path class="cls-19" d="M760.7,256s11-.77,15.11,0a55,55,0,0,1,9.83,3.21l1.84-2.27S771.47,248.33,760.7,256Z" transform="translate(-334.54 -83.5)"/><path class="cls-7" d="M774.09,272.27l-5.74,5.67S774.09,278.65,774.09,272.27Z" transform="translate(-334.54 -83.5)"/><path class="cls-19" d="M763.53,267.74s9.78,9.63,23.1,5.38Z" transform="translate(-334.54 -83.5)"/><path class="cls-9" d="M602.75,1580.26l-2.9-23.85-7.59,6.72-27-22.66-3.26,12.6S579,1580.26,602.75,1580.26Z" transform="translate(-334.54 -83.5)"/><path class="cls-21" d="M627.18,762.87c2.63-3.64-2.87-7.63-5.52-4-1.15,1.59-118.28,161.83-104.37,437.32a39.35,39.35,0,0,1,5,10.07c1.34,3.63,4.86,7.19,10,10.56-.35-1.65-.64-3-.66-3.27C510.62,927.76,626,764.48,627.18,762.87Z" transform="translate(-334.54 -83.5)"/><path class="cls-19" d="M861.55,182.85c-3.27.18-.83,2.64,1.19,50.46H850.56a1.71,1.71,0,0,0,0,3.41h15.78C862.73,184.2,864.74,182.56,861.55,182.85Z" transform="translate(-334.54 -83.5)"/><path class="cls-2" d="M1109.65,728.2c-.07-.29-7.08-29.26-35.82-43.63-28.48-14.24-38.67-7-38.77-6.88a.85.85,0,0,1-1-1.35c.43-.34,11-8.1,40.57,6.71s36.64,44.47,36.71,44.77A.85.85,0,0,1,1109.65,728.2Z" transform="translate(-334.54 -83.5)"/><path class="cls-2" d="M384,1227.87c-42-42-50-94.49-49.38-131.14.71-39.63,11.47-69.8,11.58-70.1l3.2,1.15c-.11.3-10.7,30-11.38,69.12-.62,36,7.26,87.46,48.38,128.57Z" transform="translate(-334.54 -83.5)"/></svg>